<svg width="343" height="315" viewBox="0 0 343 315" fill="none" xmlns="http://www.w3.org/2000/svg">
<rect width="134.555" height="127.998" rx="12" transform="matrix(0.991951 -0.126626 0.0862154 0.996277 11.011 38.3066)" fill="white"/>
<g filter="url(#filter0_dd_277_19481)">
<rect width="135" height="128" rx="12" transform="matrix(0.991951 -0.126626 0.0862154 0.996277 11.011 38.3066)" fill="white" fill-opacity="0.01" shape-rendering="crispEdges"/>
</g>
<rect width="64.0006" height="64.0006" rx="32.0003" transform="matrix(0.991951 -0.126626 0.0862154 0.996277 47.3835 49.7803)" fill="#FEF3C7"/>
<path d="M73.6005 87.8775C72.3875 86.8991 71.4013 85.7155 70.6418 84.3268C69.8822 82.938 69.4346 81.459 69.2988 79.8899C69.163 78.3207 69.3264 76.7323 69.789 75.1246C70.2516 73.5168 71.0943 71.955 72.3171 70.4391C73.1096 69.4565 74.1175 68.5724 75.3407 67.7867C76.564 67.001 78.0341 66.316 79.7512 65.7316C81.4682 65.1473 83.4457 64.6745 85.6835 64.3133C87.9213 63.9521 90.4397 63.7188 93.2388 63.6133C93.6656 66.2281 93.9378 68.6486 94.0552 70.8748C94.1726 73.101 94.141 75.1259 93.9603 76.9495C93.7797 78.7731 93.4432 80.3899 92.9509 81.8C92.4587 83.2101 91.805 84.4204 90.9898 85.431C89.7897 86.9189 88.4783 88.0621 87.0556 88.8607C85.6329 89.6592 84.1527 90.1567 82.6152 90.3529C81.0033 90.5587 79.4011 90.4422 77.8086 90.0033C76.2161 89.5644 74.8134 88.8558 73.6005 87.8775ZM77.7149 86.7479C78.4707 87.0795 79.2349 87.2904 80.0074 87.3807C80.78 87.4709 81.563 87.4654 82.3566 87.3641C83.4973 87.2185 84.6057 86.8441 85.6818 86.2408C86.7579 85.6376 87.7601 84.7605 88.6885 83.6095C89.096 83.1042 89.4942 82.4175 89.8829 81.5495C90.2717 80.6815 90.5768 79.5723 90.7985 78.2219C91.0201 76.8716 91.1374 75.2575 91.1504 73.3798C91.1634 71.5021 90.9969 69.2884 90.6509 66.7388C89.4315 66.8441 88.0597 67.0004 86.5357 67.2075C85.0117 67.4146 83.503 67.7269 82.0096 68.1441C80.5163 68.5614 79.1092 69.1061 77.7884 69.7784C76.4676 70.4506 75.4109 71.278 74.6184 72.2606C73.5994 73.5238 72.9266 74.7303 72.5999 75.88C72.2731 77.0298 72.1539 78.1152 72.2423 79.1364C72.3695 80.6059 72.76 81.8592 73.4139 82.8964C74.0678 83.9335 74.6249 84.6493 75.0853 85.0438C75.9544 82.9183 77.1653 80.831 78.718 78.7819C80.2707 76.7328 82.1371 74.9774 84.3173 73.5155C82.6676 75.3126 81.265 77.2858 80.1097 79.4353C78.9543 81.5847 78.156 84.0223 77.7149 86.7479Z" fill="#D97706"/>
<path d="M50.1116 141.093L49.2389 131.009L51.2491 130.752L56.407 136.843L55.8293 130.167L57.8556 129.909L58.7282 139.993L56.9051 140.226L51.5377 133.899L52.1378 140.834L50.1116 141.093ZM63.6729 139.503C62.9699 139.593 62.3453 139.52 61.7991 139.285C61.253 139.049 60.8128 138.673 60.4785 138.155C60.1443 137.638 59.9444 137 59.8787 136.241C59.8133 135.485 59.8985 134.805 60.1343 134.2C60.3701 133.596 60.7349 133.102 61.2287 132.72C61.7224 132.339 62.3243 132.102 63.0343 132.012C63.7423 131.921 64.3682 131.998 64.9123 132.243C65.4563 132.487 65.894 132.874 66.2254 133.405C66.5568 133.936 66.7558 134.586 66.8224 135.355C66.8851 136.08 66.8032 136.738 66.5766 137.329C66.35 137.92 65.9922 138.407 65.5029 138.79C65.0137 139.172 64.4037 139.41 63.6729 139.503ZM63.5515 137.988C63.9065 137.943 64.1837 137.802 64.3831 137.566C64.5824 137.33 64.7165 137.034 64.7854 136.678C64.8542 136.322 64.8712 135.943 64.8363 135.541C64.8034 135.16 64.7273 134.805 64.6082 134.478C64.489 134.151 64.3123 133.896 64.0781 133.713C63.8439 133.53 63.5392 133.462 63.164 133.51C62.8043 133.556 62.5233 133.692 62.321 133.919C62.1186 134.146 61.9815 134.435 61.9098 134.784C61.8382 135.134 61.82 135.513 61.8553 135.921C61.8879 136.297 61.9652 136.652 62.0872 136.986C62.2093 137.32 62.3889 137.582 62.626 137.774C62.8631 137.965 63.1716 138.037 63.5515 137.988ZM71.8661 138.316L70.9934 128.232L74.6918 127.759C75.4208 127.666 76.0858 127.71 76.6868 127.89C77.2877 128.07 77.7769 128.385 78.1544 128.835C78.5319 129.285 78.7515 129.866 78.8131 130.578C78.8709 131.246 78.7727 131.836 78.5185 132.348C78.2643 132.86 77.8807 133.276 77.3677 133.597C76.8547 133.917 76.2382 134.123 75.518 134.215L73.5986 134.46L73.9097 138.055L71.8661 138.316ZM73.4429 132.885L75.3242 132.644C75.8317 132.58 76.2331 132.363 76.5285 131.993C76.8238 131.624 76.9505 131.196 76.9085 130.711C76.8651 130.21 76.6602 129.834 76.2938 129.583C75.9273 129.332 75.4974 129.238 75.0042 129.301L73.1532 129.537L73.4429 132.885ZM83.7448 136.941C83.0357 137.031 82.3984 136.961 81.833 136.732C81.2676 136.502 80.8106 136.132 80.4621 135.622C80.1136 135.111 79.907 134.483 79.8423 133.735C79.7799 133.014 79.8611 132.347 80.086 131.734C80.3108 131.121 80.6684 130.613 81.1585 130.21C81.6486 129.806 82.2605 129.557 82.9943 129.464C83.7259 129.37 84.3533 129.447 84.8764 129.693C85.3996 129.939 85.8114 130.321 86.1118 130.839C86.4123 131.357 86.5937 131.976 86.6561 132.696L86.704 133.25L81.8838 133.865C81.9124 134.234 81.9985 134.546 82.142 134.801C82.2855 135.056 82.4786 135.243 82.7212 135.361C82.9638 135.48 83.2467 135.518 83.5699 135.477C83.9165 135.433 84.2139 135.319 84.4621 135.136C84.7102 134.953 84.8708 134.685 84.9438 134.332L86.7704 134.099C86.7349 134.622 86.5702 135.086 86.2761 135.49C85.982 135.894 85.6117 136.221 85.1653 136.471C84.7188 136.72 84.2454 136.877 83.7448 136.941ZM81.7738 132.655L84.7053 132.281C84.68 131.989 84.6032 131.73 84.4748 131.504C84.3464 131.277 84.1686 131.107 83.9415 130.994C83.7143 130.88 83.4381 130.844 83.113 130.886C82.8019 130.926 82.543 131.036 82.3361 131.215C82.1292 131.395 81.9777 131.614 81.8814 131.871C81.7852 132.128 81.7493 132.389 81.7738 132.655ZM90.5483 136.072C90.0921 136.13 89.6729 136.097 89.2909 135.972C88.9089 135.848 88.5973 135.635 88.3561 135.335C88.1148 135.035 87.9739 134.65 87.9332 134.18C87.8649 133.391 88.1066 132.752 88.6585 132.264C89.2104 131.776 90.1204 131.445 91.3885 131.27L92.2875 131.137L92.2504 130.708C92.2216 130.376 92.1033 130.132 91.8954 129.978C91.6875 129.824 91.3807 129.776 90.9751 129.834C90.6817 129.875 90.4081 129.98 90.1542 130.149C89.9003 130.318 89.7373 130.576 89.6652 130.922L87.9792 131.137C87.962 130.615 88.0762 130.167 88.3216 129.794C88.5671 129.421 88.9171 129.122 89.3716 128.898C89.8261 128.674 90.3525 128.524 90.9508 128.448C91.6842 128.354 92.2813 128.371 92.7419 128.498C93.2025 128.626 93.5476 128.847 93.7773 129.162C94.007 129.477 94.1422 129.87 94.183 130.341L94.6217 135.411L92.9283 135.627L92.6519 134.405C92.4538 134.959 92.1793 135.359 91.8282 135.606C91.4772 135.853 91.0506 136.008 90.5483 136.072ZM91.1145 134.644C91.2976 134.621 91.4731 134.565 91.6408 134.477C91.8085 134.389 91.9562 134.278 92.0839 134.146C92.2115 134.014 92.3104 133.871 92.3807 133.717C92.4509 133.564 92.4809 133.409 92.4706 133.253L92.3786 132.19L91.6472 132.292C91.3102 132.339 90.9996 132.42 90.7154 132.535C90.4312 132.649 90.2072 132.804 90.0434 132.998C89.8796 133.193 89.8104 133.437 89.8358 133.73C89.8647 134.064 90.0022 134.31 90.2484 134.469C90.4945 134.628 90.7832 134.687 91.1145 134.644ZM96.2691 135.201L95.6451 127.99L97.6392 127.735L97.7276 128.756C97.8214 128.566 97.951 128.376 98.1164 128.187C98.2819 127.998 98.4958 127.833 98.7582 127.691C99.0206 127.549 99.3408 127.455 99.7186 127.406C100.156 127.35 100.573 127.384 100.969 127.507C101.366 127.629 101.699 127.86 101.967 128.2C102.236 128.539 102.396 129.006 102.447 129.601L102.859 134.36L100.828 134.619L100.438 130.114C100.404 129.722 100.263 129.442 100.015 129.277C99.766 129.111 99.4763 129.049 99.1453 129.091C98.9245 129.12 98.7142 129.186 98.5143 129.292C98.3145 129.397 98.1563 129.537 98.04 129.712C97.9236 129.886 97.8756 130.092 97.8961 130.328L98.2953 134.942L96.2691 135.201ZM107.16 133.952C106.829 133.992 106.498 133.982 106.166 133.921C105.835 133.86 105.528 133.747 105.246 133.581C104.964 133.415 104.731 133.196 104.547 132.923C104.363 132.651 104.254 132.323 104.221 131.94L103.789 126.95L105.82 126.691L106.23 131.422C106.258 131.755 106.391 132.014 106.626 132.2C106.862 132.386 107.191 132.452 107.613 132.398C108.007 132.348 108.313 132.204 108.529 131.968C108.745 131.732 108.837 131.428 108.805 131.058L108.398 126.362L110.41 126.105L111.034 133.316L109.503 133.511L109.147 132.111C109.097 132.544 108.967 132.889 108.758 133.145C108.549 133.402 108.302 133.591 108.015 133.715C107.728 133.838 107.443 133.917 107.16 133.952ZM115.869 132.776C115.237 132.857 114.742 132.838 114.383 132.718C114.024 132.598 113.766 132.401 113.607 132.127C113.448 131.852 113.352 131.522 113.319 131.136L112.979 127.207L111.812 127.356L111.69 125.942L112.923 125.784L113.247 123.543L114.692 123.358L114.879 125.525L116.472 125.321L116.595 126.745L115.002 126.948L115.344 130.791C115.36 130.969 115.394 131.098 115.446 131.178C115.499 131.257 115.574 131.305 115.67 131.319C115.767 131.334 115.89 131.332 116.038 131.313L117.002 131.19L117.11 132.441C117.019 132.493 116.878 132.551 116.684 132.615C116.491 132.678 116.22 132.732 115.869 132.776ZM121.405 132.133C120.906 132.197 120.418 132.176 119.943 132.07C119.467 131.964 119.054 131.754 118.702 131.44C118.35 131.127 118.106 130.692 117.97 130.136L119.725 129.911C119.809 130.159 119.938 130.347 120.111 130.475C120.285 130.603 120.476 130.686 120.684 130.722C120.893 130.759 121.09 130.765 121.275 130.741C121.663 130.692 121.971 130.59 122.198 130.435C122.425 130.28 122.528 130.075 122.505 129.821C122.488 129.624 122.405 129.476 122.256 129.378C122.106 129.28 121.866 129.221 121.535 129.201L120.248 129.099C119.602 129.048 119.073 128.884 118.66 128.61C118.247 128.335 118.011 127.901 117.953 127.308C117.913 126.875 117.992 126.472 118.191 126.099C118.391 125.726 118.707 125.411 119.139 125.153C119.571 124.896 120.114 124.725 120.768 124.642C121.654 124.529 122.378 124.634 122.94 124.958C123.502 125.282 123.819 125.798 123.891 126.505L122.197 126.721C122.124 126.448 121.967 126.25 121.729 126.128C121.49 126.005 121.201 125.966 120.862 126.009C120.514 126.054 120.231 126.154 120.014 126.309C119.797 126.465 119.7 126.671 119.722 126.927C119.738 127.115 119.844 127.252 120.038 127.338C120.232 127.425 120.528 127.483 120.925 127.513L122.116 127.627C122.525 127.676 122.863 127.769 123.13 127.905C123.397 128.042 123.608 128.201 123.765 128.383C123.921 128.565 124.035 128.754 124.106 128.949C124.178 129.144 124.221 129.323 124.235 129.485C124.276 129.966 124.184 130.391 123.958 130.759C123.731 131.127 123.399 131.429 122.96 131.665C122.522 131.901 122.004 132.057 121.405 132.133Z" fill="#0F172A"/>
<rect width="133.275" height="127.999" rx="12" transform="matrix(0.99795 0.0640086 -0.0427824 0.999085 198.497 1.25684)" fill="white"/>
<g filter="url(#filter1_dd_277_19481)">
<rect width="133" height="128" rx="12" transform="matrix(0.99795 0.0640086 -0.0427824 0.999085 198.497 1.25684)" fill="white" fill-opacity="0.01" shape-rendering="crispEdges"/>
</g>
<rect width="63.9977" height="63.9977" rx="31.9989" transform="matrix(0.99795 0.0640086 -0.0427824 0.999085 232.38 19.459)" fill="#DBEAFE"/>
<path d="M262.907 63.9938C263.208 63.9881 263.468 63.8858 263.69 63.6871C263.911 63.4884 264.028 63.2392 264.041 62.9395C264.056 62.5898 263.955 62.3016 263.74 62.0749C263.524 61.8482 263.242 61.7361 262.891 61.7387C261.865 61.748 260.792 61.3974 259.671 60.6869C258.551 59.9764 257.877 58.7748 257.649 57.0821C257.611 56.8041 257.49 56.5709 257.285 56.3825C257.081 56.1941 256.841 56.091 256.567 56.0734C256.217 56.051 255.925 56.1638 255.689 56.4116C255.453 56.6595 255.365 56.9606 255.425 57.3151C255.752 59.6152 256.681 61.3028 258.211 62.3777C259.741 63.4526 261.306 63.9913 262.907 63.9938ZM262.303 68.4633C258.885 68.2441 256.085 66.8873 253.903 64.3931C251.72 61.8988 250.704 58.9033 250.854 55.4065C250.961 52.9087 252.069 50.2561 254.178 47.4485C256.287 44.6409 259.423 41.655 263.586 38.4908C267.457 42.1703 270.321 45.541 272.178 48.6031C274.036 51.6651 274.912 54.445 274.805 56.9427C274.655 60.4395 273.388 63.2886 271.005 65.49C268.622 67.6914 265.721 68.6825 262.303 68.4633ZM262.431 65.4661C265.026 65.6325 267.209 64.8896 268.981 63.2376C270.753 61.5855 271.696 59.4232 271.811 56.7506C271.889 54.9273 271.222 52.8183 269.811 50.4236C268.4 48.0289 266.269 45.3751 263.416 42.4621C260.331 44.9942 257.984 47.3608 256.377 49.5619C254.769 51.7629 253.926 53.7752 253.848 55.5985C253.733 58.271 254.487 60.5422 256.108 62.4119C257.729 64.2816 259.837 65.2996 262.431 65.4661Z" fill="#3B82F6"/>
<path d="M227.043 110.283L227.476 100.171C227.53 100.174 227.674 100.184 227.909 100.199C228.144 100.215 228.421 100.233 228.74 100.251C229.059 100.27 229.378 100.291 229.696 100.314C230.014 100.337 230.281 100.358 230.496 100.378C231.721 100.487 232.71 100.772 233.464 101.231C234.218 101.691 234.76 102.3 235.09 103.059C235.42 103.817 235.564 104.7 235.521 105.709C235.476 106.756 235.246 107.65 234.831 108.389C234.416 109.127 233.808 109.679 233.006 110.043C232.204 110.407 231.2 110.55 229.993 110.473L227.043 110.283ZM229.169 108.765L230.108 108.825C230.686 108.862 231.216 108.784 231.698 108.59C232.18 108.396 232.573 108.054 232.878 107.565C233.182 107.076 233.352 106.408 233.388 105.56C233.422 104.771 233.324 104.123 233.094 103.615C232.864 103.107 232.522 102.723 232.067 102.465C231.612 102.206 231.065 102.056 230.426 102.015L229.461 101.953L229.169 108.765ZM238.988 111.19C238.529 111.16 238.118 111.048 237.756 110.852C237.394 110.656 237.113 110.387 236.913 110.045C236.713 109.704 236.623 109.297 236.643 108.826C236.677 108.034 236.998 107.45 237.607 107.074C238.216 106.698 239.159 106.544 240.437 106.613L241.343 106.654L241.362 106.223C241.376 105.89 241.29 105.627 241.104 105.435C240.919 105.244 240.621 105.138 240.212 105.118C239.917 105.102 239.632 105.154 239.359 105.272C239.086 105.391 238.892 105.614 238.776 105.942L237.08 105.833C237.13 105.314 237.301 104.894 237.591 104.573C237.882 104.252 238.267 104.024 238.746 103.89C239.224 103.756 239.764 103.708 240.366 103.746C241.104 103.794 241.693 103.924 242.132 104.137C242.572 104.351 242.885 104.635 243.072 104.989C243.259 105.344 243.342 105.757 243.322 106.229L243.104 111.313L241.4 111.204L241.284 109.946C241.017 110.455 240.693 110.797 240.314 110.974C239.935 111.15 239.493 111.222 238.988 111.19ZM239.732 109.889C239.916 109.901 240.097 109.879 240.274 109.824C240.451 109.769 240.612 109.689 240.755 109.582C240.898 109.476 241.015 109.354 241.104 109.216C241.193 109.078 241.243 108.931 241.253 108.775L241.298 107.709L240.561 107.67C240.222 107.653 239.904 107.674 239.608 107.732C239.312 107.791 239.07 107.901 238.883 108.062C238.696 108.222 238.596 108.45 238.584 108.744C238.569 109.079 238.674 109.348 238.897 109.552C239.12 109.755 239.398 109.868 239.732 109.889ZM244.781 111.421L245.091 104.19L247.04 104.315L246.73 111.546L244.781 111.421ZM245.115 103.151L245.194 101.311L247.178 101.439L247.1 103.278L245.115 103.151ZM248.533 111.662L248.843 104.43L250.806 104.556L250.733 106.268C250.865 105.907 251.043 105.595 251.268 105.331C251.493 105.068 251.76 104.868 252.069 104.731C252.378 104.595 252.722 104.539 253.101 104.563C253.168 104.567 253.231 104.575 253.289 104.585C253.346 104.595 253.388 104.609 253.415 104.627L253.332 106.571C253.293 106.551 253.244 106.536 253.186 106.527C253.128 106.517 253.075 106.509 253.027 106.503C252.626 106.442 252.283 106.431 251.999 106.469C251.714 106.508 251.481 106.589 251.298 106.713C251.115 106.836 250.98 106.993 250.891 107.183C250.802 107.373 250.752 107.59 250.741 107.834L250.572 111.792L248.533 111.662ZM255.482 114.422C254.987 114.39 254.64 114.326 254.441 114.231C254.241 114.136 254.142 114.088 254.142 114.088L254.197 112.788L254.909 112.862C255.222 112.902 255.474 112.903 255.666 112.867C255.859 112.831 256.006 112.776 256.11 112.701C256.213 112.627 256.287 112.548 256.334 112.466C256.38 112.383 256.413 112.316 256.435 112.265L256.587 111.876L254.074 104.766L256.092 104.895L257.623 109.724L259.575 105.119L261.571 105.247L258.333 112.33C258.054 112.931 257.767 113.386 257.472 113.694C257.177 114.003 256.866 114.208 256.537 114.308C256.209 114.408 255.857 114.446 255.482 114.422ZM265.624 112.758L266.057 102.645L272.934 103.086L272.851 104.789L268.04 104.481L267.931 107.025L272.101 107.292L272.029 108.962L267.86 108.694L267.68 112.89L265.624 112.758ZM273.94 113.291L274.25 106.06L276.213 106.186L276.14 107.898C276.271 107.537 276.45 107.225 276.675 106.961C276.9 106.697 277.167 106.497 277.476 106.361C277.785 106.224 278.129 106.168 278.508 106.193C278.575 106.197 278.638 106.204 278.695 106.215C278.753 106.225 278.795 106.239 278.822 106.257L278.739 108.201C278.7 108.181 278.651 108.166 278.593 108.156C278.535 108.147 278.482 108.139 278.434 108.132C278.033 108.071 277.69 108.06 277.405 108.099C277.121 108.138 276.887 108.219 276.705 108.342C276.522 108.466 276.386 108.622 276.297 108.813C276.208 109.003 276.159 109.22 276.148 109.464L275.979 113.422L273.94 113.291ZM282.992 114.012C282.278 113.966 281.656 113.776 281.126 113.442C280.596 113.108 280.192 112.656 279.912 112.086C279.633 111.516 279.51 110.857 279.542 110.107C279.573 109.384 279.739 108.741 280.04 108.18C280.341 107.618 280.761 107.185 281.298 106.881C281.835 106.576 282.472 106.447 283.21 106.494C283.946 106.542 284.557 106.736 285.043 107.079C285.529 107.421 285.888 107.876 286.119 108.445C286.349 109.013 286.449 109.658 286.418 110.38L286.395 110.935L281.545 110.624C281.526 110.993 281.571 111.317 281.681 111.596C281.79 111.876 281.957 112.097 282.182 112.26C282.407 112.422 282.682 112.514 283.007 112.535C283.355 112.557 283.664 112.502 283.933 112.369C284.203 112.236 284.396 112.002 284.514 111.668L286.351 111.785C286.249 112.295 286.026 112.721 285.683 113.063C285.34 113.406 284.932 113.658 284.458 113.819C283.984 113.98 283.495 114.044 282.992 114.012ZM281.592 109.41L284.541 109.599C284.554 109.306 284.511 109.036 284.413 108.788C284.315 108.541 284.161 108.339 283.951 108.184C283.741 108.029 283.472 107.941 283.145 107.92C282.832 107.9 282.561 107.959 282.334 108.097C282.106 108.235 281.928 108.422 281.799 108.657C281.671 108.892 281.602 109.143 281.592 109.41ZM291.046 114.529C290.333 114.483 289.711 114.293 289.181 113.959C288.651 113.624 288.246 113.172 287.967 112.603C287.688 112.033 287.564 111.373 287.596 110.624C287.627 109.9 287.793 109.258 288.095 108.697C288.396 108.135 288.815 107.702 289.352 107.397C289.889 107.092 290.527 106.964 291.265 107.011C292.001 107.058 292.612 107.253 293.098 107.595C293.584 107.938 293.942 108.393 294.173 108.961C294.404 109.529 294.504 110.175 294.473 110.897L294.449 111.452L289.6 111.141C289.581 111.51 289.626 111.834 289.735 112.113C289.844 112.392 290.011 112.613 290.236 112.776C290.461 112.939 290.736 113.031 291.061 113.052C291.41 113.074 291.719 113.019 291.988 112.885C292.257 112.752 292.45 112.518 292.568 112.184L294.406 112.302C294.303 112.811 294.081 113.237 293.738 113.58C293.395 113.923 292.986 114.175 292.512 114.336C292.038 114.497 291.55 114.561 291.046 114.529ZM289.646 109.926L292.596 110.115C292.608 109.823 292.566 109.553 292.468 109.305C292.37 109.057 292.216 108.856 292.005 108.701C291.795 108.546 291.526 108.458 291.199 108.437C290.886 108.416 290.616 108.475 290.388 108.614C290.16 108.752 289.982 108.938 289.854 109.174C289.726 109.409 289.656 109.66 289.646 109.926Z" fill="#0F172A"/>
<rect width="134.555" height="127.993" rx="12" transform="matrix(0.991951 0.126626 -0.0862154 0.996277 38.0466 149.267)" fill="white"/>
<g filter="url(#filter2_dd_277_19481)">
<rect width="135" height="128" rx="12" transform="matrix(0.991951 0.126626 -0.0862154 0.996277 38.0466 149.267)" fill="white" fill-opacity="0.01" shape-rendering="crispEdges"/>
</g>
<rect width="64.0006" height="64.0006" rx="32.0003" transform="matrix(0.991951 0.126626 -0.0862154 0.996277 71.6602 169.674)" fill="#FFEDD5"/>
<path d="M84.7301 215.663L84.9888 212.674L93.5444 213.766C93.182 211.579 92.3045 209.623 90.912 207.896C89.5194 206.17 87.7929 204.898 85.7324 204.081C86.2392 204.02 86.737 203.989 87.226 203.988C87.7149 203.988 88.2198 204.021 88.7406 204.087C92.0636 204.511 94.7781 206.029 96.8839 208.64C98.9897 211.25 99.8982 214.224 99.6094 217.562L84.7301 215.663ZM102.585 217.942C102.676 216.896 102.654 215.842 102.52 214.78C102.387 213.717 102.15 212.686 101.81 211.686C103.005 210.05 104.547 208.812 106.438 207.971C108.329 207.129 110.365 206.848 112.547 207.126C113.068 207.193 113.568 207.288 114.046 207.412C114.524 207.536 115.006 207.692 115.491 207.88C113.336 208.159 111.435 208.967 109.79 210.306C108.145 211.645 106.945 213.336 106.192 215.38L114.747 216.473L114.489 219.461L102.585 217.942ZM100.382 208.633C100.522 207.014 100.951 205.533 101.669 204.189C102.387 202.845 103.314 201.698 104.449 200.748C105.585 199.797 106.881 199.087 108.338 198.619C109.795 198.15 111.319 197.992 112.911 198.145C111.447 198.839 110.139 199.755 108.987 200.892C107.836 202.03 106.907 203.347 106.201 204.843C105.065 205.227 104.011 205.741 103.04 206.385C102.069 207.029 101.183 207.778 100.382 208.633ZM97.9091 205.484C97.6309 205.222 97.3517 204.972 97.0713 204.735C96.791 204.498 96.4983 204.259 96.1931 204.019C96.206 203.869 96.2319 203.715 96.2707 203.556C96.3095 203.398 96.3354 203.244 96.3483 203.094C96.5121 201.201 96.3697 199.37 95.9211 197.6C95.4725 195.831 94.763 194.179 93.7926 192.645C95.3711 193.526 96.7073 194.672 97.8012 196.084C98.8951 197.495 99.6933 199.064 100.196 200.79C99.6848 201.48 99.2319 202.222 98.8374 203.015C98.4428 203.808 98.1334 204.631 97.9091 205.484Z" fill="#F97316"/>
<path d="M61.5156 260.176C60.5967 260.059 59.8168 259.746 59.1757 259.239C58.5347 258.732 58.0632 258.069 57.761 257.25C57.4589 256.432 57.3532 255.498 57.4441 254.448C57.5366 253.379 57.8098 252.479 58.2638 251.747C58.7177 251.016 59.3104 250.484 60.0419 250.15C60.7734 249.817 61.6017 249.709 62.527 249.827C63.1218 249.903 63.6574 250.068 64.1337 250.323C64.6099 250.577 65.0154 250.892 65.35 251.268C65.6846 251.643 65.9361 252.052 66.1045 252.495C66.2728 252.937 66.3466 253.383 66.3258 253.833L64.192 253.561C64.1566 253.232 64.062 252.923 63.908 252.634C63.754 252.345 63.5446 252.103 63.2798 251.907C63.015 251.712 62.6985 251.591 62.3302 251.544C61.8843 251.487 61.4714 251.55 61.0913 251.734C60.7112 251.918 60.3947 252.248 60.1418 252.725C59.8889 253.202 59.7269 253.851 59.6558 254.672C59.5982 255.339 59.619 255.901 59.7182 256.36C59.8174 256.819 59.9718 257.192 60.1812 257.479C60.3907 257.766 60.6381 257.982 60.9235 258.127C61.2089 258.272 61.5072 258.365 61.8185 258.404C62.1168 258.442 62.3871 258.427 62.6293 258.357C62.8715 258.288 63.0823 258.183 63.2616 258.045C63.4409 257.906 63.5877 257.749 63.7018 257.574C63.816 257.399 63.8937 257.223 63.9347 257.046L64.0691 256.441L61.9895 256.175L62.1114 254.766L66.3159 255.322L65.8601 260.59L64.4735 260.413L64.5874 259.096C64.3966 259.303 64.166 259.502 63.8955 259.694C63.6251 259.885 63.2968 260.031 62.9106 260.131C62.5245 260.23 62.0595 260.245 61.5156 260.176ZM70.0347 261.247C69.5044 261.179 69.0901 261.063 68.792 260.898C68.4938 260.734 68.2797 260.539 68.1497 260.314C68.0197 260.089 67.9446 259.847 67.9244 259.587C67.9042 259.327 67.9053 259.067 67.9277 258.808L68.6495 250.468L70.6375 250.722L69.9374 258.812C69.9146 259.076 69.9526 259.298 70.0514 259.479C70.1503 259.66 70.355 259.788 70.6656 259.863L71.0011 259.926L70.8923 261.183C70.7522 261.213 70.6085 261.236 70.4611 261.251C70.3137 261.266 70.1716 261.264 70.0347 261.247ZM74.8418 261.877C74.5112 261.833 74.189 261.74 73.8751 261.597C73.5612 261.453 73.2806 261.265 73.0335 261.032C72.7863 260.798 72.5959 260.525 72.4623 260.212C72.3287 259.898 72.2784 259.55 72.3116 259.167L72.7434 254.178L74.7744 254.437L74.365 259.168C74.3362 259.5 74.4211 259.788 74.6197 260.029C74.8184 260.27 75.1288 260.418 75.5509 260.472C75.9455 260.522 76.2687 260.459 76.5205 260.283C76.7723 260.106 76.9142 259.832 76.9463 259.462L77.3526 254.766L79.3646 255.023L78.7405 262.234L77.2095 262.038L77.1006 260.578C76.9776 260.989 76.7919 261.294 76.5435 261.492C76.2952 261.69 76.0203 261.813 75.7189 261.861C75.4176 261.909 75.1252 261.915 74.8418 261.877ZM83.5615 262.927C82.9299 262.846 82.4489 262.702 82.1185 262.494C81.7881 262.287 81.5687 262.029 81.4604 261.72C81.3521 261.412 81.3146 261.065 81.348 260.679L81.6881 256.749L80.5216 256.6L80.6439 255.186L81.8773 255.343L82.5777 253.233L84.0224 253.417L83.8349 255.584L85.4281 255.787L85.3049 257.211L83.7118 257.007L83.3887 260.852C83.3733 261.03 83.3844 261.165 83.4222 261.256C83.4599 261.348 83.5248 261.413 83.617 261.451C83.7091 261.49 83.8293 261.519 83.9774 261.538L84.9417 261.661L84.8334 262.912C84.7356 262.941 84.5869 262.961 84.3873 262.974C84.1877 262.987 83.9124 262.972 83.5615 262.927ZM89.3045 263.723C88.5954 263.633 87.984 263.404 87.4702 263.036C86.9565 262.669 86.5729 262.191 86.3193 261.604C86.0658 261.017 85.9713 260.35 86.036 259.603C86.0984 258.881 86.2921 258.249 86.6169 257.707C86.9417 257.164 87.3784 256.757 87.9269 256.486C88.4754 256.215 89.1166 256.127 89.8503 256.22C90.582 256.314 91.1826 256.547 91.6521 256.92C92.1217 257.292 92.4591 257.77 92.6643 258.353C92.8695 258.935 92.941 259.587 92.8787 260.307L92.8308 260.86L88.0106 260.245C87.9755 260.613 88.0063 260.94 88.103 261.226C88.1996 261.512 88.3565 261.743 88.5736 261.92C88.7907 262.097 89.0608 262.206 89.384 262.247C89.7306 262.292 90.0409 262.256 90.315 262.139C90.589 262.023 90.792 261.801 90.9238 261.475L92.7504 261.708C92.6262 262.21 92.3856 262.622 92.0288 262.944C91.6719 263.265 91.2538 263.491 90.7744 263.622C90.295 263.754 89.805 263.787 89.3045 263.723ZM88.1102 259.034L91.0417 259.408C91.0669 259.116 91.0361 258.843 90.9493 258.59C90.8624 258.336 90.7176 258.125 90.5148 257.956C90.3121 257.788 90.0481 257.683 89.7229 257.641C89.4119 257.602 89.1398 257.644 88.9066 257.768C88.6735 257.891 88.4878 258.067 88.3497 258.294C88.2115 258.521 88.1317 258.768 88.1102 259.034ZM94.0274 264.185L94.6515 256.974L96.6456 257.229L96.5572 258.25C96.6816 258.087 96.8408 257.934 97.035 257.791C97.2292 257.648 97.4668 257.54 97.7477 257.468C98.0286 257.396 98.358 257.384 98.7359 257.432C99.173 257.488 99.5751 257.626 99.9422 257.846C100.309 258.066 100.595 258.376 100.8 258.776C101.004 259.176 101.081 259.673 101.029 260.268L100.617 265.026L98.5864 264.767L98.9762 260.262C99.0102 259.87 98.9198 259.561 98.7051 259.336C98.4904 259.111 98.2176 258.978 97.8866 258.936C97.6658 258.908 97.4487 258.92 97.2351 258.972C97.0216 259.025 96.8429 259.122 96.6992 259.263C96.5555 259.405 96.4734 259.594 96.4529 259.83L96.0537 264.444L94.0274 264.185ZM105.648 265.669L106.521 255.584L113.356 256.457L113.199 258.155L108.417 257.544L108.198 260.081L112.342 260.61L112.198 262.275L108.054 261.746L107.692 265.929L105.648 265.669ZM113.914 266.724L114.538 259.513L116.489 259.762L116.342 261.469C116.489 261.116 116.68 260.815 116.916 260.566C117.152 260.316 117.427 260.133 117.741 260.016C118.055 259.899 118.4 259.865 118.776 259.913C118.843 259.921 118.905 259.933 118.962 259.946C119.019 259.96 119.061 259.977 119.087 259.996L118.919 261.935C118.881 261.912 118.833 261.894 118.776 261.881C118.718 261.868 118.666 261.857 118.618 261.847C118.221 261.761 117.88 261.729 117.594 261.75C117.309 261.771 117.073 261.837 116.886 261.949C116.698 262.061 116.556 262.209 116.459 262.394C116.362 262.578 116.303 262.792 116.282 263.035L115.94 266.982L113.914 266.724ZM122.905 268.013C122.196 267.922 121.584 267.693 121.071 267.325C120.557 266.958 120.173 266.48 119.92 265.893C119.666 265.306 119.572 264.639 119.636 263.892C119.699 263.17 119.892 262.538 120.217 261.996C120.542 261.453 120.979 261.047 121.527 260.776C122.076 260.504 122.717 260.416 123.451 260.509C124.182 260.603 124.783 260.836 125.252 261.209C125.722 261.582 126.059 262.059 126.265 262.642C126.47 263.225 126.541 263.876 126.479 264.596L126.431 265.15L121.611 264.534C121.576 264.902 121.607 265.229 121.703 265.515C121.8 265.801 121.957 266.032 122.174 266.209C122.391 266.386 122.661 266.495 122.984 266.537C123.331 266.581 123.641 266.545 123.915 266.429C124.189 266.312 124.392 266.091 124.524 265.764L126.351 265.997C126.227 266.5 125.986 266.912 125.629 267.233C125.272 267.554 124.854 267.78 124.375 267.911C123.895 268.043 123.405 268.076 122.905 268.013ZM121.711 263.323L124.642 263.697C124.667 263.405 124.636 263.132 124.55 262.879C124.463 262.625 124.318 262.414 124.115 262.246C123.912 262.077 123.648 261.972 123.323 261.931C123.012 261.891 122.74 261.933 122.507 262.057C122.274 262.18 122.088 262.356 121.95 262.583C121.812 262.81 121.732 263.057 121.711 263.323ZM130.911 269.035C130.202 268.944 129.59 268.715 129.077 268.347C128.563 267.98 128.179 267.502 127.926 266.915C127.672 266.328 127.578 265.661 127.642 264.914C127.705 264.192 127.898 263.56 128.223 263.018C128.548 262.475 128.985 262.069 129.533 261.798C130.082 261.526 130.723 261.438 131.457 261.531C132.188 261.625 132.789 261.858 133.258 262.231C133.728 262.604 134.065 263.081 134.271 263.664C134.476 264.247 134.547 264.898 134.485 265.618L134.437 266.172L129.617 265.556C129.582 265.924 129.613 266.251 129.709 266.537C129.806 266.823 129.963 267.054 130.18 267.231C130.397 267.408 130.667 267.517 130.99 267.559C131.337 267.603 131.647 267.567 131.921 267.451C132.195 267.334 132.398 267.113 132.53 266.786L134.357 267.019C134.233 267.522 133.992 267.934 133.635 268.255C133.278 268.576 132.86 268.802 132.381 268.933C131.901 269.065 131.411 269.098 130.911 269.035ZM129.717 264.345L132.648 264.719C132.673 264.427 132.643 264.154 132.556 263.901C132.469 263.647 132.324 263.436 132.121 263.268C131.918 263.099 131.654 262.994 131.329 262.953C131.018 262.913 130.746 262.955 130.513 263.079C130.28 263.202 130.094 263.378 129.956 263.605C129.818 263.832 129.738 264.079 129.717 264.345Z" fill="#0F172A"/>
<rect width="137.133" height="128.006" rx="12" transform="matrix(0.968983 -0.247131 0.174434 0.984669 176.653 151.776)" fill="white"/>
<g filter="url(#filter3_dd_277_19481)">
<rect width="137" height="128" rx="12" transform="matrix(0.968983 -0.247131 0.174434 0.984669 176.653 151.776)" fill="white" fill-opacity="0.01" shape-rendering="crispEdges"/>
</g>
<rect width="63.9972" height="63.9993" rx="31.9986" transform="matrix(0.968983 -0.247131 0.174434 0.984669 214.877 158.494)" fill="#FEE2E2"/>
<path d="M239.303 190.62C238.503 190.824 237.768 190.709 237.096 190.276C236.424 189.842 236.016 189.22 235.873 188.407L233.518 175.114C233.374 174.302 233.535 173.534 234.002 172.81C234.469 172.086 235.102 171.623 235.901 171.419L262.064 164.746C262.863 164.542 263.599 164.657 264.271 165.09C264.942 165.524 265.35 166.147 265.494 166.959L267.849 180.252C267.993 181.064 267.831 181.832 267.365 182.556C266.898 183.28 266.265 183.743 265.465 183.947L239.303 190.62ZM236.425 174.373L238.779 187.666L264.942 180.993L262.587 167.7L236.425 174.373ZM240.328 195.762L239.826 193.574L265.704 185.507L266.205 187.695L240.328 195.762ZM240.866 199.445L240.474 197.229L266.636 190.557L267.029 192.772L240.866 199.445ZM248.925 182.763C250.717 182.306 252.387 181.545 253.933 180.482C255.479 179.419 256.752 178.065 257.752 176.421C258.08 177.417 258.753 178.069 259.769 178.376C260.786 178.683 261.851 178.694 262.965 178.41L261.657 171.025C260.543 171.309 259.574 171.846 258.752 172.634C257.929 173.423 257.539 174.365 257.582 175.461C256.071 174.508 254.437 173.896 252.68 173.623C250.922 173.351 249.147 173.444 247.355 173.901C245.441 174.389 243.66 175.197 242.011 176.325C240.363 177.453 239.135 178.956 238.329 180.834C239.702 182.156 241.333 182.93 243.222 183.156C245.11 183.382 247.011 183.251 248.925 182.763ZM236.425 174.373L238.779 187.666L236.425 174.373Z" fill="#EF4444"/>
<path d="M237.723 246.471C237.231 246.596 236.742 246.656 236.255 246.651C235.768 246.646 235.311 246.568 234.884 246.418C234.457 246.267 234.086 246.037 233.772 245.727C233.458 245.417 233.232 245.019 233.093 244.531L235.126 244.013C235.245 244.298 235.419 244.52 235.649 244.679C235.879 244.839 236.156 244.934 236.481 244.965C236.806 244.996 237.164 244.962 237.555 244.862C237.866 244.783 238.153 244.662 238.417 244.498C238.682 244.335 238.886 244.137 239.031 243.904C239.176 243.672 239.223 243.412 239.172 243.125C239.112 242.786 238.944 242.561 238.67 242.451C238.395 242.342 238.039 242.291 237.601 242.298L235.69 242.356C235.146 242.379 234.662 242.325 234.236 242.192C233.81 242.059 233.459 241.832 233.184 241.51C232.909 241.188 232.724 240.758 232.628 240.218C232.518 239.599 232.592 239.022 232.85 238.486C233.108 237.95 233.505 237.487 234.043 237.097C234.581 236.708 235.212 236.42 235.938 236.235C236.753 236.027 237.466 235.986 238.078 236.11C238.689 236.235 239.184 236.489 239.563 236.87C239.942 237.252 240.185 237.723 240.293 238.283L238.306 238.79C238.21 238.45 238.058 238.198 237.85 238.033C237.642 237.869 237.395 237.774 237.108 237.747C236.821 237.721 236.506 237.752 236.162 237.839C235.572 237.99 235.162 238.222 234.933 238.537C234.703 238.851 234.617 239.169 234.674 239.489C234.727 239.792 234.874 240.01 235.115 240.145C235.355 240.279 235.711 240.337 236.182 240.319L237.949 240.255C238.606 240.217 239.155 240.282 239.596 240.451C240.037 240.62 240.382 240.872 240.63 241.208C240.879 241.543 241.045 241.947 241.129 242.418C241.236 243.02 241.161 243.593 240.904 244.136C240.648 244.679 240.247 245.155 239.701 245.563C239.155 245.971 238.496 246.274 237.723 246.471ZM243.156 244.941L241.342 234.698L243.308 234.197L244.043 238.341C244.126 238.147 244.239 237.946 244.382 237.738C244.524 237.53 244.715 237.338 244.953 237.162C245.191 236.986 245.495 236.85 245.866 236.756C246.313 236.642 246.737 236.626 247.138 236.709C247.54 236.792 247.882 236.973 248.164 237.253C248.446 237.533 248.63 237.912 248.715 238.391L249.584 243.301L247.6 243.807L246.784 239.199C246.726 238.874 246.568 238.655 246.308 238.541C246.048 238.427 245.756 238.411 245.433 238.493C245.217 238.548 245.017 238.641 244.832 238.771C244.648 238.902 244.507 239.062 244.411 239.251C244.315 239.44 244.288 239.652 244.33 239.886L245.136 244.436L243.156 244.941ZM254.437 242.208C253.745 242.384 253.109 242.392 252.529 242.232C251.95 242.071 251.465 241.757 251.075 241.29C250.685 240.822 250.424 240.219 250.293 239.481C250.167 238.768 250.188 238.091 250.355 237.452C250.522 236.813 250.83 236.262 251.278 235.799C251.727 235.336 252.309 235.013 253.026 234.831C253.741 234.648 254.368 234.648 254.907 234.83C255.446 235.013 255.887 235.344 256.23 235.825C256.573 236.306 256.808 236.902 256.934 237.614L257.031 238.161L252.323 239.362C252.384 239.727 252.497 240.028 252.662 240.266C252.826 240.503 253.034 240.666 253.284 240.755C253.535 240.844 253.818 240.848 254.133 240.767C254.472 240.681 254.756 240.531 254.985 240.318C255.213 240.105 255.348 239.818 255.389 239.456L257.173 239.001C257.185 239.528 257.063 240.011 256.809 240.451C256.555 240.891 256.218 241.262 255.799 241.566C255.38 241.869 254.926 242.083 254.437 242.208ZM252.106 238.167L254.969 237.436C254.918 237.148 254.819 236.899 254.672 236.688C254.525 236.478 254.334 236.33 254.099 236.244C253.864 236.158 253.588 236.156 253.271 236.237C252.967 236.314 252.721 236.456 252.532 236.66C252.344 236.865 252.214 237.102 252.142 237.371C252.07 237.639 252.058 237.905 252.106 238.167ZM261.276 240.447C260.758 240.579 260.337 240.621 260.013 240.575C259.689 240.528 259.437 240.421 259.257 240.255C259.076 240.088 258.943 239.884 258.857 239.643C258.771 239.401 258.706 239.153 258.66 238.897L257.2 230.654L259.142 230.158L260.559 238.155C260.605 238.415 260.698 238.614 260.838 238.75C260.978 238.886 261.204 238.933 261.516 238.89L261.849 238.824L262.069 240.068C261.945 240.148 261.815 240.223 261.679 240.292C261.544 240.361 261.41 240.413 261.276 240.447ZM265.535 239.36C265.017 239.492 264.597 239.535 264.273 239.488C263.949 239.442 263.697 239.335 263.516 239.168C263.336 239.001 263.203 238.797 263.117 238.556C263.031 238.315 262.965 238.066 262.92 237.81L261.46 229.567L263.402 229.072L264.818 237.068C264.865 237.329 264.958 237.527 265.097 237.664C265.237 237.8 265.463 237.847 265.776 237.803L266.109 237.738L266.329 238.981C266.204 239.062 266.074 239.137 265.939 239.206C265.804 239.275 265.669 239.326 265.535 239.36ZM268.029 238.597L267.014 232.868L265.719 233.198L265.471 231.801L266.767 231.47L266.585 230.446C266.483 229.869 266.571 229.38 266.849 228.978C267.126 228.576 267.569 228.298 268.175 228.143L269.785 227.732L270.031 229.071L269.107 229.306C268.856 229.37 268.695 229.477 268.623 229.628C268.551 229.778 268.54 229.997 268.591 230.284L268.713 230.974L270.229 230.587L270.477 231.985L268.998 232.362L270.013 238.091L268.029 238.597ZM272.641 237.421L271.378 230.294L273.271 229.811L274.533 236.938L272.641 237.421ZM271.178 229.276L270.857 227.463L272.783 226.972L273.105 228.785L271.178 229.276ZM279.091 235.92C278.603 236.045 278.119 236.083 277.64 236.035C277.161 235.987 276.733 235.828 276.358 235.557C275.982 235.286 275.702 234.881 275.517 234.343L277.232 233.905C277.337 234.143 277.481 234.315 277.664 234.422C277.847 234.528 278.043 234.587 278.252 234.598C278.461 234.609 278.657 234.592 278.838 234.546C279.217 234.449 279.512 234.31 279.722 234.127C279.933 233.945 280.016 233.728 279.971 233.477C279.937 233.282 279.841 233.144 279.685 233.064C279.528 232.985 279.286 232.955 278.957 232.976L277.676 233.031C277.033 233.057 276.495 232.959 276.062 232.734C275.629 232.51 275.358 232.105 275.248 231.52C275.169 231.092 275.211 230.68 275.375 230.283C275.538 229.887 275.822 229.533 276.226 229.224C276.63 228.914 277.151 228.678 277.79 228.515C278.656 228.294 279.381 228.311 279.965 228.566C280.55 228.822 280.909 229.298 281.043 229.996L279.389 230.418C279.292 230.154 279.12 229.975 278.873 229.882C278.626 229.789 278.337 229.784 278.006 229.869C277.665 229.956 277.395 230.09 277.195 230.272C276.994 230.454 276.917 230.671 276.961 230.924C276.994 231.11 277.111 231.234 277.31 231.297C277.51 231.36 277.807 231.382 278.202 231.364L279.39 231.333C279.799 231.332 280.141 231.383 280.417 231.487C280.693 231.591 280.916 231.725 281.087 231.888C281.258 232.05 281.387 232.225 281.475 232.411C281.564 232.598 281.622 232.771 281.65 232.931C281.734 233.406 281.681 233.842 281.491 234.237C281.3 234.633 280.998 234.975 280.586 235.263C280.174 235.552 279.676 235.771 279.091 235.92ZM283.392 234.679L281.578 224.436L283.544 223.935L284.279 228.079C284.362 227.885 284.475 227.684 284.618 227.476C284.76 227.268 284.951 227.076 285.189 226.9C285.427 226.724 285.731 226.588 286.102 226.494C286.549 226.38 286.973 226.364 287.374 226.447C287.776 226.53 288.118 226.711 288.4 226.991C288.682 227.271 288.866 227.65 288.951 228.129L289.82 233.04L287.836 233.546L287.02 228.937C286.962 228.612 286.804 228.393 286.544 228.279C286.284 228.165 285.992 228.149 285.669 228.232C285.453 228.287 285.253 228.379 285.068 228.51C284.884 228.64 284.743 228.8 284.647 228.989C284.551 229.178 284.524 229.39 284.566 229.624L285.372 234.174L283.392 234.679Z" fill="#0F172A"/>
<defs>
<filter id="filter0_dd_277_19481" x="0" y="20.6338" width="166.971" height="165.774" filterUnits="userSpaceOnUse" color-interpolation-filters="sRGB">
<feFlood flood-opacity="0" result="BackgroundImageFix"/>
<feColorMatrix in="SourceAlpha" type="matrix" values="0 0 0 0 0 0 0 0 0 0 0 0 0 0 0 0 0 0 127 0" result="hardAlpha"/>
<feMorphology radius="4" operator="erode" in="SourceAlpha" result="effect1_dropShadow_277_19481"/>
<feOffset dy="4"/>
<feGaussianBlur stdDeviation="3"/>
<feComposite in2="hardAlpha" operator="out"/>
<feColorMatrix type="matrix" values="0 0 0 0 0 0 0 0 0 0 0 0 0 0 0 0 0 0 0.1 0"/>
<feBlend mode="normal" in2="BackgroundImageFix" result="effect1_dropShadow_277_19481"/>
<feColorMatrix in="SourceAlpha" type="matrix" values="0 0 0 0 0 0 0 0 0 0 0 0 0 0 0 0 0 0 127 0" result="hardAlpha"/>
<feMorphology radius="3" operator="erode" in="SourceAlpha" result="effect2_dropShadow_277_19481"/>
<feOffset dy="10"/>
<feGaussianBlur stdDeviation="7.5"/>
<feComposite in2="hardAlpha" operator="out"/>
<feColorMatrix type="matrix" values="0 0 0 0 0 0 0 0 0 0 0 0 0 0 0 0 0 0 0.1 0"/>
<feBlend mode="normal" in2="effect1_dropShadow_277_19481" result="effect2_dropShadow_277_19481"/>
<feBlend mode="normal" in="SourceGraphic" in2="effect2_dropShadow_277_19481" result="shape"/>
</filter>
<filter id="filter1_dd_277_19481" x="181.523" y="0" width="161.199" height="158.91" filterUnits="userSpaceOnUse" color-interpolation-filters="sRGB">
<feFlood flood-opacity="0" result="BackgroundImageFix"/>
<feColorMatrix in="SourceAlpha" type="matrix" values="0 0 0 0 0 0 0 0 0 0 0 0 0 0 0 0 0 0 127 0" result="hardAlpha"/>
<feMorphology radius="4" operator="erode" in="SourceAlpha" result="effect1_dropShadow_277_19481"/>
<feOffset dy="4"/>
<feGaussianBlur stdDeviation="3"/>
<feComposite in2="hardAlpha" operator="out"/>
<feColorMatrix type="matrix" values="0 0 0 0 0 0 0 0 0 0 0 0 0 0 0 0 0 0 0.1 0"/>
<feBlend mode="normal" in2="BackgroundImageFix" result="effect1_dropShadow_277_19481"/>
<feColorMatrix in="SourceAlpha" type="matrix" values="0 0 0 0 0 0 0 0 0 0 0 0 0 0 0 0 0 0 127 0" result="hardAlpha"/>
<feMorphology radius="3" operator="erode" in="SourceAlpha" result="effect2_dropShadow_277_19481"/>
<feOffset dy="10"/>
<feGaussianBlur stdDeviation="7.5"/>
<feComposite in2="hardAlpha" operator="out"/>
<feColorMatrix type="matrix" values="0 0 0 0 0 0 0 0 0 0 0 0 0 0 0 0 0 0 0.1 0"/>
<feBlend mode="normal" in2="effect1_dropShadow_277_19481" result="effect2_dropShadow_277_19481"/>
<feBlend mode="normal" in="SourceGraphic" in2="effect2_dropShadow_277_19481" result="shape"/>
</filter>
<filter id="filter2_dd_277_19481" x="16" y="148.688" width="166.971" height="165.774" filterUnits="userSpaceOnUse" color-interpolation-filters="sRGB">
<feFlood flood-opacity="0" result="BackgroundImageFix"/>
<feColorMatrix in="SourceAlpha" type="matrix" values="0 0 0 0 0 0 0 0 0 0 0 0 0 0 0 0 0 0 127 0" result="hardAlpha"/>
<feMorphology radius="4" operator="erode" in="SourceAlpha" result="effect1_dropShadow_277_19481"/>
<feOffset dy="4"/>
<feGaussianBlur stdDeviation="3"/>
<feComposite in2="hardAlpha" operator="out"/>
<feColorMatrix type="matrix" values="0 0 0 0 0 0 0 0 0 0 0 0 0 0 0 0 0 0 0.1 0"/>
<feBlend mode="normal" in2="BackgroundImageFix" result="effect1_dropShadow_277_19481"/>
<feColorMatrix in="SourceAlpha" type="matrix" values="0 0 0 0 0 0 0 0 0 0 0 0 0 0 0 0 0 0 127 0" result="hardAlpha"/>
<feMorphology radius="3" operator="erode" in="SourceAlpha" result="effect2_dropShadow_277_19481"/>
<feOffset dy="10"/>
<feGaussianBlur stdDeviation="7.5"/>
<feComposite in2="hardAlpha" operator="out"/>
<feColorMatrix type="matrix" values="0 0 0 0 0 0 0 0 0 0 0 0 0 0 0 0 0 0 0.1 0"/>
<feBlend mode="normal" in2="effect1_dropShadow_277_19481" result="effect2_dropShadow_277_19481"/>
<feBlend mode="normal" in="SourceGraphic" in2="effect2_dropShadow_277_19481" result="shape"/>
</filter>
<filter id="filter3_dd_277_19481" x="166.557" y="118.516" width="175.27" height="178.702" filterUnits="userSpaceOnUse" color-interpolation-filters="sRGB">
<feFlood flood-opacity="0" result="BackgroundImageFix"/>
<feColorMatrix in="SourceAlpha" type="matrix" values="0 0 0 0 0 0 0 0 0 0 0 0 0 0 0 0 0 0 127 0" result="hardAlpha"/>
<feMorphology radius="4" operator="erode" in="SourceAlpha" result="effect1_dropShadow_277_19481"/>
<feOffset dy="4"/>
<feGaussianBlur stdDeviation="3"/>
<feComposite in2="hardAlpha" operator="out"/>
<feColorMatrix type="matrix" values="0 0 0 0 0 0 0 0 0 0 0 0 0 0 0 0 0 0 0.1 0"/>
<feBlend mode="normal" in2="BackgroundImageFix" result="effect1_dropShadow_277_19481"/>
<feColorMatrix in="SourceAlpha" type="matrix" values="0 0 0 0 0 0 0 0 0 0 0 0 0 0 0 0 0 0 127 0" result="hardAlpha"/>
<feMorphology radius="3" operator="erode" in="SourceAlpha" result="effect2_dropShadow_277_19481"/>
<feOffset dy="10"/>
<feGaussianBlur stdDeviation="7.5"/>
<feComposite in2="hardAlpha" operator="out"/>
<feColorMatrix type="matrix" values="0 0 0 0 0 0 0 0 0 0 0 0 0 0 0 0 0 0 0.1 0"/>
<feBlend mode="normal" in2="effect1_dropShadow_277_19481" result="effect2_dropShadow_277_19481"/>
<feBlend mode="normal" in="SourceGraphic" in2="effect2_dropShadow_277_19481" result="shape"/>
</filter>
</defs>
</svg>
