<svg width="256" height="256" viewBox="0 0 256 256" fill="none" xmlns="http://www.w3.org/2000/svg">
<path d="M81.9202 51.2002H174.08C191.046 51.2002 204.8 64.954 204.8 81.9202V174.08C204.8 191.046 191.046 204.8 174.08 204.8H81.9202C64.954 204.8 51.2002 191.046 51.2002 174.08V81.9202C51.2002 64.954 64.954 51.2002 81.9202 51.2002Z" fill="#EC5C14"/>
<path d="M83.2002 128C83.2002 152.726 103.274 172.8 128 172.8C152.726 172.8 172.8 152.726 172.8 128C172.8 103.274 152.726 83.2002 128 83.2002C103.274 83.2002 83.2002 103.274 83.2002 128Z" fill="white" fill-opacity="0.2"/>
<path d="M108.8 128C108.8 138.597 117.403 147.2 128 147.2C138.597 147.2 147.2 138.597 147.2 128C147.2 117.403 138.597 108.8 128 108.8C117.403 108.8 108.8 117.403 108.8 128Z" fill="white"/>
<path d="M72.9599 125.44H183.04C184.453 125.44 185.6 126.588 185.6 128C185.6 129.413 184.453 130.56 183.04 130.56H72.9599C71.547 130.56 70.3999 129.413 70.3999 128C70.3999 126.588 71.547 125.44 72.9599 125.44V125.44Z" fill="white" fill-opacity="0.8"/>
</svg>
